<svg width="32" height="32" viewBox="0 0 32 32" fill="none" xmlns="http://www.w3.org/2000/svg">
<g clip-path="url(#clip0_29135_360925)">
<g clip-path="url(#clip1_29135_360925)">
<path d="M1 1H16V16H1V1Z" fill="#7FADED"/>
<path d="M16 1H31V16H16V1Z" fill="#F5F5F5"/>
<path d="M1 16H16V31H1V16Z" fill="#F5F5F5"/>
<path d="M16 16H31V31H16V16Z" fill="#FFBA33"/>
</g>
<path d="M27 0.5H5L4.96342 0.5C4.05169 0.499986 3.31681 0.499975 2.73883 0.577682C2.13876 0.658359 1.63351 0.830955 1.23223 1.23223C0.830955 1.63351 0.658359 2.13876 0.577682 2.73883C0.499975 3.31681 0.499986 4.05169 0.5 4.96342L0.5 5V27L0.5 27.0366C0.499986 27.9483 0.499975 28.6832 0.577682 29.2612C0.658359 29.8612 0.830955 30.3665 1.23223 30.7678C1.63351 31.169 2.13876 31.3416 2.73883 31.4223C3.31681 31.5 4.05168 31.5 4.9634 31.5H5H27H27.0366C27.9483 31.5 28.6832 31.5 29.2612 31.4223C29.8612 31.3416 30.3665 31.169 30.7678 30.7678C31.169 30.3665 31.3416 29.8612 31.4223 29.2612C31.5 28.6832 31.5 27.9483 31.5 27.0366V27V5V4.9634C31.5 4.05168 31.5 3.31681 31.4223 2.73883C31.3416 2.13876 31.169 1.63351 30.7678 1.23223C30.3665 0.830955 29.8612 0.658359 29.2612 0.577682C28.6832 0.499975 27.9483 0.499986 27.0366 0.5L27 0.5Z" stroke="black" stroke-opacity="0.9"/>
</g>
<defs>
<clipPath id="clip0_29135_360925">
<path d="M0 4C0 2.11438 0 1.17157 0.585786 0.585786C1.17157 0 2.11438 0 4 0H28C29.8856 0 30.8284 0 31.4142 0.585786C32 1.17157 32 2.11438 32 4V28C32 29.8856 32 30.8284 31.4142 31.4142C30.8284 32 29.8856 32 28 32H4C2.11438 32 1.17157 32 0.585786 31.4142C0 30.8284 0 29.8856 0 28V4Z" fill="white"/>
</clipPath>
<clipPath id="clip1_29135_360925">
<path d="M1 5C1 3.11438 1 2.17157 1.58579 1.58579C2.17157 1 3.11438 1 5 1H27C28.8856 1 29.8284 1 30.4142 1.58579C31 2.17157 31 3.11438 31 5V27C31 28.8856 31 29.8284 30.4142 30.4142C29.8284 31 28.8856 31 27 31H5C3.11438 31 2.17157 31 1.58579 30.4142C1 29.8284 1 28.8856 1 27V5Z" fill="white"/>
</clipPath>
</defs>
</svg>
